<svg xmlns="http://www.w3.org/2000/svg" viewBox="0 0 48 48">
    <path
        d="M 35.25 31 C 36.28125 31.722656 37 33 37 34 C 37 35.25 36.75 36.125 35.875 37 C 35.875 37 36 37.125 36.625 37.125 C 40.125 37.125 41 35.179688 41 34.5 C 41 32.5 39 32 39 32 C 39.625 31.984375 40.21875 32.035156 40.804688 32.183594 C 42.488281 32.617188 43.75 33.558594 44.535156 35.109375 C 44.839844 35.714844 44.992188 36.316406 45 36.902344 C 45.015625 38.0625 44.5 39.25 43.375 40.25 C 41.523438 41.894531 38.125 42 38 42 C 38.328125 42.363281 39.25 43.125 40.625 43.125 C 41.25 43.125 42 43 42 43 C 41.964844 43.046875 41.25 43.875 39.359375 44.574219 C 38.585938 44.835938 37.796875 44.988281 37 45 C 36.53125 45.007812 36.058594 44.964844 35.578125 44.867188 C 33.675781 44.480469 32.363281 43.367188 31.542969 41.660156 C 31.269531 41.09375 31 39.875 31 39.625 C 30.382812 40.230469 30.023438 40.960938 30 41.75 C 30.125 43.375 31.011719 43.980469 31 44 C 30.855469 43.941406 28 43.375 28 39.375 C 27.988281 38.734375 28.003906 38.214844 28 37.625 C 27.996094 36.59375 27.523438 35.734375 26.71875 35.070312 C 25.359375 33.949219 23.996094 32.835938 22.625 31.726562 C 21.691406 30.972656 21.105469 30.039062 21.09375 28.824219 C 21.085938 28.066406 20.726562 27.511719 20.136719 27.066406 C 19.761719 26.785156 19.386719 26.503906 19.050781 26.1875 C 18.453125 25.621094 18.34375 24.925781 18.546875 24.140625 C 18.582031 24.167969 18.609375 24.179688 18.613281 24.199219 C 18.847656 25.140625 19.566406 25.484375 20.445312 25.628906 C 20.914062 25.703125 21.394531 25.734375 21.859375 25.835938 C 22.347656 25.941406 22.625 26.285156 22.738281 26.753906 C 22.808594 27.046875 22.863281 27.339844 22.929688 27.632812 C 23.0625 28.191406 23.347656 28.425781 23.925781 28.464844 C 24.308594 28.488281 24.691406 28.507812 25.074219 28.546875 C 25.671875 28.605469 26.1875 28.84375 26.652344 29.222656 C 28.265625 30.535156 29.886719 31.839844 31.503906 33.152344 C 31.917969 33.488281 32.625 34 33.375 34 C 34.25 34 35.375 33.375 35.375 32.125 C 35.375 31.375 35.25 31 35.25 31 Z M 35.25 31 "/>
    <path
        d="M 25.890625 36.074219 C 24.753906 35.132812 23.605469 34.199219 22.460938 33.269531 C 21.820312 34.308594 19.351562 38 15.871094 38 C 14.144531 38 12.566406 36.984375 11.75 35.40625 C 11.261719 34.457031 11 33.355469 11 32.375 C 11 28.125 13.675781 25.800781 13.738281 25.71875 C 13.011719 25.539062 12.464844 25.613281 11.875 26.007812 C 11.277344 26.40625 10.195312 27.085938 10.117188 27.128906 C 10 27.125 10 27.125 10 27 L 10.375 24.5 C 9.800781 24.695312 8.5 25.375 7 26.875 C 6.25 27.625 5.644531 28.289062 5.644531 28.289062 C 5.25 26.875 5.875 24.375 5.996094 23.5 C 6.070312 22.988281 5.871094 23 5.871094 23 C 5.621094 23 4.875 23.765625 4.5 24.15625 C 3.339844 25.363281 2.605469 26.738281 2.191406 28.363281 C 2.113281 28.671875 2.0625 29.0625 2 29.375 C 2.023438 29.382812 2.625 28.5 3.125 28.5 C 3.375 28.5 3.390625 28.882812 3.382812 29.019531 C 3.367188 29.226562 3.296875 29.4375 3.230469 29.640625 C 2.769531 31.074219 2.503906 32.523438 2.492188 34 C 2.488281 34.675781 2.535156 35.355469 2.644531 36.042969 C 2.824219 37.210938 3.109375 38.0625 3.625 39.125 C 4.351562 40.625 5.65625 41.9375 5.75 42 C 5.6875 41.785156 5.5625 41.496094 5.539062 41.328125 C 5.496094 41.011719 5.433594 40.683594 5.46875 40.367188 C 5.511719 39.972656 5.859375 39.882812 6.144531 40.160156 C 6.273438 40.289062 7.691406 41.628906 8.527344 42.171875 C 10.417969 43.410156 12.414062 43.992188 14.5 44 C 15.582031 44.003906 16.6875 43.851562 17.816406 43.554688 C 19.449219 43.128906 20.890625 42.332031 22.171875 41.261719 C 23.816406 39.890625 25.085938 38.128906 26.09375 36.273438 C 26.027344 36.203125 25.96875 36.136719 25.890625 36.074219 Z M 31.320312 22.082031 C 29.328125 23.398438 27.664062 25.578125 26.214844 27.445312 C 26.203125 27.460938 26.199219 27.472656 26.191406 27.488281 C 26.644531 27.652344 27.074219 27.886719 27.472656 28.210938 C 28.003906 28.644531 28.539062 29.078125 29.074219 29.511719 C 29.117188 29.421875 29.15625 29.34375 29.191406 29.269531 C 30.179688 27.234375 31.375 24.796875 32.886719 23.089844 C 34.363281 21.425781 36.960938 20.910156 38.886719 21.839844 C 39.125 21.953125 39.320312 22.007812 39.511719 22 C 39.703125 21.992188 39.894531 21.925781 40.125 21.804688 C 41.632812 21.027344 43.257812 20.636719 44.953125 20.648438 C 45.289062 20.648438 46 20.75 46 20.75 C 45.375 20.125 44.554688 19.488281 43.84375 19.089844 C 42.519531 18.34375 41.15625 18 39.75 18 C 37.75 18 36.75 18.625 36.214844 18.625 C 36 18.625 35.894531 18.566406 35.820312 18.46875 C 35.757812 18.382812 35.78125 18.191406 35.832031 18.074219 C 36.125 17.5 36.933594 17.046875 37 17 C 36.375 17 34.996094 17.742188 34.203125 18.355469 C 33.671875 18.765625 33.140625 19.183594 32.605469 19.589844 C 32.496094 19.671875 32.367188 19.738281 32.238281 19.777344 C 31.882812 19.878906 31.703125 19.703125 31.808594 19.363281 C 31.855469 19.207031 31.925781 19.058594 32.007812 18.917969 C 32.136719 18.691406 32.28125 18.472656 32.433594 18.234375 C 28.625 20.625 27.972656 23.90625 28 23.875 C 29.117188 22.660156 30.382812 21.710938 31.875 21 C 33.371094 20.289062 35 19.875 36.875 19.875 C 36.875 19.875 37 19.976562 37 20 C 37 20 36.25 20 35.453125 20.238281 C 33.953125 20.582031 32.59375 21.242188 31.320312 22.082031 Z M 31.320312 22.082031 "/>
    <path
        d="M 16.75 11.25 C 16.75 11.75 16.882812 12.246094 17.023438 12.664062 C 17.398438 13.75 18.109375 14.628906 18.925781 15.421875 C 19.726562 16.207031 20.574219 16.949219 21.390625 17.71875 C 22.214844 18.492188 22.933594 19.347656 23.359375 20.402344 C 23.601562 21 23.71875 21.617188 23.625 22.261719 C 23.597656 22.441406 23.664062 22.527344 23.824219 22.59375 C 24.230469 22.765625 24.488281 23.054688 24.511719 23.507812 C 24.519531 23.722656 24.652344 23.691406 24.78125 23.621094 C 25.5 23.25 25.828125 22.6875 25.875 22.625 C 25.957031 22.796875 26 23.007812 26 23.25 C 25.988281 24.597656 24.792969 26.804688 23.671875 27.246094 C 23.6875 27.148438 23.695312 27.070312 23.710938 26.988281 C 23.867188 26.101562 23.425781 25.375 22.558594 25.085938 C 21.972656 24.886719 21.484375 24.882812 20.871094 24.875 C 20.777344 24.875 20.515625 24.875 20.371094 24.875 C 20.421875 24.765625 20.765625 24.050781 20.84375 23.773438 C 20.953125 23.378906 20.808594 23.097656 20.402344 23.007812 C 19.964844 22.910156 19.507812 22.851562 19.058594 22.851562 C 18.027344 22.855469 17.003906 22.980469 16 23.222656 C 15.859375 23.257812 15.632812 23.328125 15.496094 23.375 C 16.371094 23.375 17.496094 23.75 17.496094 23.75 C 17.496094 23.75 16.996094 24.75 16.996094 25.375 C 16.996094 25.875 17.246094 26.25 17.496094 26.25 C 17.746094 26.25 17.886719 26.082031 18 26 C 17.976562 26.136719 17.839844 26.855469 17.820312 27.191406 C 17.789062 27.722656 18 28 18.625 28 C 18.75 28 18.875 28 19 28 C 18.75 28.875 16.867188 30.027344 15.75 30 C 15.675781 29.996094 15.605469 29.992188 15.542969 29.976562 C 16 29.75 16.691406 28.875 16.691406 28.5 L 15.199219 28.691406 C 15.199219 28.691406 15.707031 28.054688 15.871094 27.738281 C 16.292969 26.910156 16.339844 26.070312 15.78125 25.28125 C 15.308594 24.613281 14.539062 24.328125 13.75 24.25 C 12.5 24.25 11.851562 24.601562 11.75 24.625 C 12.320312 23.386719 13.132812 22.621094 14.375 22 C 13.375 21.5 12.375 21.375 12.375 21.375 C 13.375 20.75 14.875 20.25 16 20 C 15.875 20 15.5625 20.003906 15.5 20 C 11.75 20 10.28125 21.9375 10.25 22 C 10.855469 22.105469 11.25 22.125 12 22.375 C 12 22.375 10 22.75 7 25 C 7.019531 24.886719 7.375 24.125 7.375 23.375 C 7.375 20.75 4.050781 21.277344 4 21.25 C 4.082031 21.179688 4.75 20.625 6.863281 19.605469 C 7.257812 19.390625 8.375 18.875 8.375 18.25 C 8.375 17.375 6.640625 16.101562 6.5 16 C 7.875 16 8.648438 16.128906 9.75 16.375 C 9.160156 15.371094 8.996094 14.324219 9.265625 13.289062 C 9.691406 14.089844 10.300781 14.714844 11.046875 15.207031 C 11.734375 15.660156 12.457031 16.058594 13.160156 16.488281 C 13.691406 16.816406 14.242188 17.117188 14.734375 17.496094 C 15.113281 17.785156 15.410156 18.175781 15.742188 18.523438 C 15.796875 18.582031 15.84375 18.648438 15.890625 18.710938 C 15.921875 18.699219 15.949219 18.683594 15.976562 18.671875 C 15.898438 18.472656 15.835938 18.269531 15.738281 18.078125 C 15.347656 17.3125 14.765625 16.699219 14.046875 16.226562 C 13.75 16.03125 13.589844 15.800781 13.53125 15.472656 C 13.363281 14.503906 13.359375 13.554688 13.542969 12.625 C 13.644531 12.121094 14.25 11 14.25 11 L 14.25 11.125 C 14.285156 12.449219 14.789062 13.511719 15.625 14.5 C 16.503906 15.535156 17.652344 16.304688 18.640625 17.230469 C 20.375 18.875 21.113281 19.796875 21.25 20 C 21.25 20 21.199219 19.785156 21.167969 19.71875 C 20.691406 18.625 19.921875 17.746094 19.058594 16.9375 C 18.308594 16.238281 17.546875 15.546875 16.78125 14.855469 C 16.507812 14.605469 16.34375 14.308594 16.300781 13.945312 C 16.125 12.5 16.738281 11.257812 16.75 11.25 Z M 19 20 C 19 20 19.078125 20.496094 19.199219 20.742188 C 19.75 21.875 21 22 21 22 C 21 22 21 21.125 19.75 20.25 C 19.382812 19.992188 19 20 19 20 Z M 19 20 "/>
    <path
        d="M 8 12.625 C 8.25 11.375 9 10 9 10 C 9 10 9.464844 11.574219 10.25 12.625 C 10.640625 13.144531 11.160156 13.722656 11.765625 14.121094 C 11.878906 14.195312 11.992188 14.269531 12.109375 14.34375 C 12.089844 13.671875 12.140625 13.011719 12.269531 12.371094 C 12.378906 11.824219 12.761719 11.042969 13 10.585938 L 13 10.5 C 13 8.566406 14.34375 7 16 7 C 17.65625 7 19 8.566406 19 10.5 C 19 11.878906 18.890625 12.558594 18.730469 13 C 18.714844 13.035156 18.699219 13.070312 18.6875 13.105469 C 18.816406 13.316406 18.972656 13.53125 19.152344 13.75 C 19.164062 13.765625 19.171875 13.777344 19.183594 13.789062 C 19.371094 14.015625 19.582031 14.25 19.832031 14.492188 C 20.304688 14.953125 20.808594 15.414062 21.296875 15.859375 C 21.625 16.160156 21.957031 16.464844 22.28125 16.769531 C 22.359375 16.84375 22.421875 16.914062 22.496094 16.988281 C 24.042969 15.3125 25 13.140625 25 11 C 25 6 20.972656 3 16 3 C 11.027344 3 7 6.125 7 11 C 7 12.214844 7.316406 13.4375 7.863281 14.578125 C 7.828125 14.039062 7.890625 13.167969 8 12.625 Z M 8 12.625 "/>
</svg>
