<svg viewBox="0 0 1024 1024" xmlns="http://www.w3.org/2000/svg">
    <path
        d="M888.001 506V509.51C888.001 717 718.271 888.63 510.831 888C304.101 887.37 136.631 719.9 136.001 513.17C135.371 305.73 307.051 136 514.491 136H518.001C527.549 136 536.705 132.207 543.457 125.456C550.208 118.705 554.001 109.548 554.001 100C554.001 90.4522 550.208 81.2955 543.457 74.5442C536.705 67.7928 527.549 64 518.001 64H514.561C267.531 64 65.1308 262.89 64.0008 509.92C62.8708 759 265.001 961.13 514.081 960C761.111 958.87 960.001 756.47 960.001 509.44V506C960.001 496.452 956.208 487.295 949.457 480.544C942.705 473.793 933.549 470 924.001 470C914.453 470 905.296 473.793 898.545 480.544C891.794 487.295 888.001 496.452 888.001 506Z"
    >
        <animateTransform attributeName="transform" type="rotate" repeatCount="indefinite" dur="1s"
                          from="0 512 512" to="360 512 512"
        />
    </path>
</svg>
