<svg xmlns="http://www.w3.org/2000/svg" viewBox="0 0 30 30">
    <path
        d="M 10 4 C 6.804688 4 4.957031 6.492188 4.957031 9.5 C 4.957031 10.511719 5.441406 11.527344 5.441406 11.527344 C 5.246094 11.640625 4.929688 12 5.007812 12.628906 C 5.15625 13.804688 5.667969 14.101562 5.992188 14.125 C 6.117188 15.226562 7.585938 16.796875 8 17 L 8 18.667969 C 7.082031 21.417969 1 20 1 26 L 19 26 C 19 20 12.917969 21.417969 12 18.667969 L 12 17 C 12.414062 16.796875 13.882812 15.226562 14.007812 14.125 C 14.332031 14.101562 14.839844 13.804688 14.992188 12.628906 C 15.074219 11.996094 14.753906 11.640625 14.558594 11.527344 C 14.558594 11.527344 15.042969 10.609375 15.042969 9.5 C 15.042969 7.273438 14.167969 5.375 12.292969 5.375 C 12.292969 5.375 11.949219 4 10 4 Z M 16.847656 11 C 16.828125 11.085938 16.8125 11.183594 16.792969 11.261719 C 16.972656 11.71875 17.054688 12.265625 16.976562 12.882812 C 16.972656 12.925781 16.957031 12.957031 16.953125 13 L 28 13 C 28.554688 13 29 12.554688 29 12 C 29 11.445312 28.554688 11 28 11 Z M 15.425781 16 C 15.039062 16.726562 14.511719 17.402344 14 17.917969 L 14 18 L 28 18 C 28.554688 18 29 17.554688 29 17 C 29 16.445312 28.554688 16 28 16 Z M 19.1875 21 C 19.703125 21.53125 20.15625 22.183594 20.476562 23 L 28 23 C 28.554688 23 29 22.554688 29 22 C 29 21.445312 28.554688 21 28 21 Z M 19.1875 21 "
    />
</svg>
