<svg width="1822" height="2554" viewBox="0 0 1822 2554" fill="none" xmlns="http://www.w3.org/2000/svg">
    <path
        d="M1492.27 2358.36V2360.24H1487.4C1486.36 2360.24 1485.79 2360.79 1485.69 2361.89C1485.6 2363.24 1485.43 2364.5 1485.19 2365.67C1484.95 2366.85 1484.6 2367.96 1484.15 2369C1483.72 2370.03 1483.14 2371.03 1482.39 2372H1480.4C1481.13 2370.92 1481.7 2369.81 1482.11 2368.67C1482.54 2367.51 1482.87 2366.33 1483.09 2365.14C1483.31 2363.93 1483.46 2362.71 1483.54 2361.5C1483.61 2360.45 1483.93 2359.67 1484.49 2359.15C1485.07 2358.63 1485.91 2358.36 1487.01 2358.36H1492.27ZM1481.69 2371.86L1481.47 2376.03H1479.93V2371.86H1481.69ZM1494.49 2370.1V2372H1479.93V2370.1H1494.49ZM1494.49 2371.86V2376.03H1492.92L1492.69 2371.86H1494.49ZM1492.61 2358.36V2372H1490.34V2358.36H1492.61Z"
        fill="black"/>
    <path
        d="M1508.68 2358.36V2360.24H1503.7C1503.12 2360.24 1502.7 2360.37 1502.44 2360.63C1502.19 2360.87 1502.02 2361.31 1501.93 2361.95C1501.84 2362.77 1501.73 2363.61 1501.6 2364.47C1501.48 2365.33 1501.35 2366.16 1501.2 2366.96C1501.05 2367.76 1500.86 2368.48 1500.62 2369.12C1500.39 2369.77 1500.08 2370.32 1499.69 2370.77C1499.3 2371.22 1498.82 2371.55 1498.26 2371.78C1497.72 2372 1497.08 2372.12 1496.33 2372.14L1496.08 2370.32C1496.58 2370.19 1496.98 2370.04 1497.28 2369.87C1497.6 2369.7 1497.84 2369.5 1498.01 2369.26C1498.2 2369.01 1498.36 2368.73 1498.49 2368.42C1498.66 2367.97 1498.8 2367.45 1498.94 2366.88C1499.07 2366.3 1499.18 2365.69 1499.27 2365.06C1499.36 2364.42 1499.44 2363.81 1499.5 2363.21C1499.57 2362.59 1499.64 2362.04 1499.69 2361.56C1499.82 2360.51 1500.16 2359.72 1500.7 2359.18C1501.26 2358.63 1502.11 2358.36 1503.25 2358.36H1508.68ZM1509.04 2358.36V2372H1506.66V2358.36H1509.04Z"
        fill="black"/>
    <path
        d="M1518.24 2358.22C1519.27 2358.22 1520.12 2358.23 1520.79 2358.25C1521.46 2358.25 1522.06 2358.27 1522.58 2358.31C1523.12 2358.33 1523.68 2358.36 1524.26 2358.42L1523.93 2360.24C1523.72 2360.2 1523.1 2360.17 1522.08 2360.16C1521.07 2360.14 1519.81 2360.13 1518.3 2360.13C1517.16 2360.13 1516.4 2360.32 1516.03 2360.72C1515.68 2361.09 1515.5 2361.71 1515.5 2362.59C1515.5 2363.51 1515.68 2364.17 1516.06 2364.58C1516.45 2364.97 1517.22 2365.17 1518.38 2365.17H1523.95L1524.01 2366.93C1523.8 2366.93 1523.46 2366.94 1522.97 2366.96C1522.49 2366.96 1521.85 2366.96 1521.07 2366.96C1520.29 2366.96 1519.35 2366.96 1518.27 2366.96C1517.62 2366.96 1517.08 2367.08 1516.67 2367.32C1516.28 2367.57 1516.02 2367.91 1515.89 2368.36L1514.85 2372H1512.39L1513.62 2367.91C1513.75 2367.52 1513.96 2367.2 1514.24 2366.96C1514.54 2366.72 1514.86 2366.54 1515.22 2366.43C1515.59 2366.3 1515.95 2366.21 1516.28 2366.18V2366.06C1515.54 2365.95 1514.93 2365.74 1514.46 2365.42C1514.01 2365.1 1513.69 2364.68 1513.48 2364.16C1513.28 2363.62 1513.17 2362.98 1513.17 2362.26C1513.17 2361.62 1513.25 2361.05 1513.4 2360.55C1513.57 2360.04 1513.85 2359.62 1514.24 2359.29C1514.63 2358.93 1515.15 2358.67 1515.81 2358.5C1516.46 2358.32 1517.27 2358.22 1518.24 2358.22ZM1524.26 2358.42V2372H1521.94V2358.42H1524.26Z"
        fill="black"/>
    <path
        d="M1538.48 2358.14C1539.99 2358.14 1541.19 2358.24 1542.09 2358.45C1542.98 2358.63 1543.63 2358.99 1544.02 2359.51C1544.43 2360.03 1544.64 2360.79 1544.64 2361.78C1544.64 2362.75 1544.42 2363.5 1543.99 2364.02C1543.58 2364.54 1542.83 2364.85 1541.75 2364.94V2365.03C1542.96 2365.12 1543.82 2365.46 1544.33 2366.04C1544.85 2366.61 1545.11 2367.48 1545.11 2368.64C1545.11 2369.59 1544.92 2370.33 1544.52 2370.85C1544.13 2371.37 1543.51 2371.74 1542.65 2371.94C1541.79 2372.15 1540.66 2372.25 1539.26 2372.25C1538.42 2372.25 1537.52 2372.21 1536.57 2372.14C1535.62 2372.08 1534.71 2371.98 1533.86 2371.83L1534.05 2370.01C1534.67 2370.07 1535.43 2370.12 1536.35 2370.18C1537.28 2370.22 1538.2 2370.24 1539.09 2370.24C1540.47 2370.24 1541.41 2370.1 1541.89 2369.82C1542.4 2369.52 1542.65 2368.96 1542.65 2368.14C1542.65 2367.56 1542.54 2367.11 1542.31 2366.79C1542.11 2366.47 1541.74 2366.25 1541.22 2366.12C1540.72 2365.99 1540.02 2365.92 1539.15 2365.92H1535.87V2364.19L1539.12 2364.16C1539.94 2364.16 1540.58 2364.1 1541.02 2363.99C1541.49 2363.86 1541.82 2363.65 1542 2363.35C1542.19 2363.05 1542.28 2362.63 1542.28 2362.09C1542.28 2361.55 1542.16 2361.15 1541.92 2360.88C1541.7 2360.6 1541.31 2360.42 1540.77 2360.32C1540.23 2360.21 1539.47 2360.16 1538.5 2360.16C1537.78 2360.16 1537.05 2360.17 1536.32 2360.21C1535.59 2360.25 1534.98 2360.31 1534.47 2360.38L1534.28 2358.56C1535.04 2358.37 1535.79 2358.26 1536.52 2358.22C1537.26 2358.17 1537.92 2358.14 1538.48 2358.14Z"
        fill="black"/>
    <path
        d="M1555.28 2358.03C1556.29 2358.03 1557.14 2358.17 1557.83 2358.45C1558.52 2358.71 1559.04 2359.16 1559.39 2359.79C1559.75 2360.43 1559.93 2361.29 1559.93 2362.4V2372H1558.05L1557.69 2369.03L1557.55 2368.72V2362.4C1557.53 2361.56 1557.33 2360.96 1556.96 2360.6C1556.58 2360.23 1555.86 2360.04 1554.77 2360.04C1554.05 2360.04 1553.14 2360.08 1552.06 2360.16C1550.99 2360.23 1549.94 2360.31 1548.89 2360.41L1548.67 2358.64C1549.3 2358.53 1550 2358.43 1550.77 2358.34C1551.54 2358.24 1552.31 2358.17 1553.09 2358.11C1553.88 2358.06 1554.61 2358.03 1555.28 2358.03ZM1558.81 2363.6L1558.78 2365.39L1552.28 2365.42C1551.63 2365.44 1551.16 2365.62 1550.88 2365.95C1550.62 2366.27 1550.49 2366.72 1550.49 2367.3V2368.16C1550.49 2368.87 1550.66 2369.4 1550.99 2369.73C1551.35 2370.05 1551.89 2370.21 1552.62 2370.21C1553.14 2370.21 1553.73 2370.11 1554.38 2369.93C1555.05 2369.72 1555.73 2369.41 1556.4 2369C1557.07 2368.59 1557.69 2368.07 1558.25 2367.44V2369.2C1558.06 2369.46 1557.77 2369.77 1557.38 2370.12C1557 2370.46 1556.55 2370.8 1556.01 2371.13C1555.48 2371.45 1554.9 2371.72 1554.24 2371.94C1553.59 2372.15 1552.89 2372.25 1552.14 2372.25C1551.34 2372.25 1550.63 2372.11 1550.01 2371.83C1549.4 2371.53 1548.92 2371.1 1548.59 2370.54C1548.25 2369.97 1548.08 2369.27 1548.08 2368.44V2366.96C1548.08 2365.9 1548.41 2365.07 1549.06 2364.5C1549.73 2363.9 1550.67 2363.6 1551.86 2363.6H1558.81Z"
        fill="black"/>
    <path
        d="M1579.58 2358.36C1580.17 2358.36 1580.47 2358.66 1580.47 2359.26L1581.06 2372H1578.85L1578.32 2360.18H1577.84L1574.37 2369.73C1574.29 2369.97 1574.18 2370.17 1574.03 2370.32C1573.88 2370.45 1573.68 2370.52 1573.42 2370.52H1571.57C1571.31 2370.52 1571.1 2370.45 1570.95 2370.32C1570.82 2370.17 1570.71 2369.97 1570.62 2369.73L1567.14 2360.18H1566.67L1566.16 2372H1563.98L1564.54 2359.26C1564.54 2358.66 1564.85 2358.36 1565.46 2358.36H1567.93C1568.19 2358.36 1568.38 2358.43 1568.52 2358.56C1568.66 2358.69 1568.78 2358.89 1568.85 2359.15L1571.68 2366.99C1571.81 2367.32 1571.92 2367.65 1572.02 2367.97C1572.11 2368.29 1572.19 2368.61 1572.27 2368.95H1572.72C1572.81 2368.59 1572.9 2368.26 1573 2367.94C1573.09 2367.62 1573.19 2367.31 1573.3 2366.99L1576.13 2359.15C1576.3 2358.63 1576.62 2358.36 1577.08 2358.36H1579.58Z"
        fill="black"/>
    <path
        d="M1590.72 2358.03C1592.78 2358.03 1594.26 2358.4 1595.17 2359.15C1596.11 2359.89 1596.58 2361.01 1596.6 2362.48C1596.6 2363.69 1596.34 2364.65 1595.82 2365.34C1595.31 2366.01 1594.49 2366.34 1593.35 2366.34H1585.37V2364.5H1592.74C1593.34 2364.5 1593.73 2364.29 1593.91 2363.88C1594.12 2363.45 1594.21 2362.98 1594.19 2362.48C1594.19 2361.6 1593.94 2360.98 1593.44 2360.6C1592.93 2360.23 1592.07 2360.04 1590.83 2360.04C1589.85 2360.04 1589.06 2360.19 1588.48 2360.49C1587.92 2360.77 1587.52 2361.28 1587.28 2362C1587.05 2362.71 1586.94 2363.71 1586.94 2365C1586.94 2366.46 1587.08 2367.57 1587.36 2368.33C1587.66 2369.1 1588.13 2369.62 1588.76 2369.9C1589.4 2370.18 1590.24 2370.32 1591.28 2370.32C1592.03 2370.32 1592.83 2370.29 1593.69 2370.24C1594.57 2370.16 1595.35 2370.08 1596.04 2369.98L1596.27 2371.58C1595.86 2371.75 1595.33 2371.89 1594.7 2372C1594.06 2372.11 1593.41 2372.2 1592.74 2372.25C1592.09 2372.31 1591.5 2372.34 1590.97 2372.34C1589.43 2372.34 1588.17 2372.1 1587.19 2371.64C1586.24 2371.15 1585.55 2370.39 1585.12 2369.34C1584.69 2368.28 1584.48 2366.88 1584.48 2365.14C1584.48 2363.35 1584.69 2361.94 1585.12 2360.91C1585.57 2359.87 1586.25 2359.13 1587.17 2358.7C1588.08 2358.25 1589.27 2358.03 1590.72 2358.03Z"
        fill="black"/>
    <path d="M1605.55 2358.36V2372H1603.17V2358.36H1605.55ZM1610.48 2358.36V2360.32H1598.21V2358.36H1610.48Z"
          fill="black"/>
    <path
        d="M1619 2358.03C1620.57 2358.03 1621.82 2358.26 1622.75 2358.73C1623.69 2359.19 1624.36 2359.96 1624.77 2361.02C1625.2 2362.07 1625.41 2363.46 1625.41 2365.2C1625.41 2366.93 1625.2 2368.33 1624.77 2369.4C1624.36 2370.44 1623.69 2371.2 1622.75 2371.66C1621.82 2372.13 1620.57 2372.36 1619 2372.36C1617.43 2372.36 1616.17 2372.13 1615.22 2371.66C1614.29 2371.2 1613.61 2370.44 1613.18 2369.4C1612.77 2368.33 1612.56 2366.93 1612.56 2365.2C1612.56 2363.46 1612.77 2362.07 1613.18 2361.02C1613.61 2359.96 1614.29 2359.19 1615.22 2358.73C1616.17 2358.26 1617.43 2358.03 1619 2358.03ZM1619 2360.04C1618.01 2360.04 1617.23 2360.2 1616.65 2360.52C1616.07 2360.82 1615.66 2361.34 1615.42 2362.09C1615.17 2362.83 1615.05 2363.87 1615.05 2365.2C1615.05 2366.52 1615.17 2367.56 1615.42 2368.3C1615.66 2369.05 1616.07 2369.58 1616.65 2369.9C1617.23 2370.2 1618.01 2370.35 1619 2370.35C1619.99 2370.35 1620.76 2370.2 1621.32 2369.9C1621.9 2369.58 1622.31 2369.05 1622.56 2368.3C1622.8 2367.56 1622.92 2366.52 1622.92 2365.2C1622.92 2363.87 1622.8 2362.83 1622.56 2362.09C1622.31 2361.34 1621.9 2360.82 1621.32 2360.52C1620.76 2360.2 1619.99 2360.04 1619 2360.04Z"
        fill="black"/>
    <path
        d="M1640.65 2358.36C1640.35 2359.17 1640.06 2359.9 1639.78 2360.58C1639.52 2361.23 1639.25 2361.81 1638.97 2362.31C1638.71 2362.82 1638.41 2363.25 1638.08 2363.6C1637.76 2363.95 1637.39 2364.24 1636.96 2364.47C1636.53 2364.67 1636.02 2364.8 1635.44 2364.86V2364.94C1636.06 2365 1636.59 2365.13 1637.04 2365.34C1637.49 2365.54 1637.88 2365.83 1638.22 2366.2C1638.57 2366.56 1638.89 2367.01 1639.17 2367.55C1639.47 2368.09 1639.77 2368.73 1640.06 2369.48C1640.36 2370.21 1640.69 2371.05 1641.04 2372H1638.55C1638.22 2371.12 1637.91 2370.35 1637.63 2369.68C1637.35 2368.99 1637.07 2368.4 1636.79 2367.91C1636.53 2367.43 1636.24 2367.03 1635.92 2366.74C1635.6 2366.42 1635.23 2366.19 1634.8 2366.06C1634.39 2365.91 1633.9 2365.84 1633.34 2365.84V2363.99C1634.02 2363.99 1634.59 2363.87 1635.05 2363.63C1635.52 2363.37 1635.92 2362.99 1636.26 2362.51C1636.61 2362.02 1636.94 2361.43 1637.24 2360.74C1637.54 2360.05 1637.85 2359.26 1638.19 2358.36H1640.65ZM1631.58 2358.36V2362.42C1631.58 2362.83 1631.55 2363.25 1631.5 2363.66C1631.44 2364.07 1631.36 2364.47 1631.24 2364.86C1631.36 2365.25 1631.44 2365.64 1631.5 2366.04C1631.55 2366.43 1631.58 2366.8 1631.58 2367.16V2372H1629.2V2358.36H1631.58ZM1634.24 2363.99V2365.84H1630.88V2363.99H1634.24Z"
        fill="black"/>
    <rect x="170" y="170" width="1482" height="2214" rx="14" stroke="black" stroke-width="4"/>
</svg>
